<?xml version="1.0" encoding="utf-8"?><svg version="1.1" id="Layer_1" xmlns="http://www.w3.org/2000/svg" xmlns:xlink="http://www.w3.org/1999/xlink" x="0px" y="0px" viewBox="0 0 122.88 70.51" style="enable-background:new 0 0 122.88 70.51" xml:space="preserve"><style type="text/css">.st0{fill-rule:evenodd;clip-rule:evenodd;fill:#ddd;}</style><g><path class="st0" d="M2.54,65.44h12.59c-0.93-0.24-1.63-1.1-1.63-2.1V2.17C13.5,0.98,14.48,0,15.67,0h90.97 c1.19,0,2.17,0.98,2.17,2.17v61.16c0,1.01-0.69,1.86-1.63,2.1h13.16c1.4,0,2.54,1.14,2.54,2.54s-1.14,2.54-2.54,2.54H2.54 c-1.4,0-2.54-1.14-2.54-2.54S1.14,65.44,2.54,65.44L2.54,65.44L2.54,65.44z M52.17,25.95c0.39,0.11,0.83,0.06,1.3-0.12L52.7,21.4 c0.29-1.11,0.74-1.98,1.33-2.62c0.62-0.66,1.39-1.08,2.32-1.25c1.22-0.09,1.59,0.81,2.81,1.59c3.72,2.38,6.86,3.18,11.46,3.23 l-0.95,3.84c0.3,0.13,0.67,0.17,1.03,0.1c0.74-0.06,1.18,0,1.3,0.24c0.17,0.35,0.01,1.06-0.5,2.23l-2.51,4.13 c-0.93,1.53-1.88,3.07-3.07,4.19c-1.14,1.07-2.55,1.78-4.47,1.78c-1.77,0-3.12-0.69-4.22-1.7c-1.16-1.06-2.09-2.5-2.98-3.92 L52,29.68h0l-0.01-0.02c-0.68-1.01-1.03-1.88-1.05-2.54c-0.01-0.22,0.03-0.41,0.1-0.56c0.06-0.13,0.16-0.25,0.29-0.34 C51.53,26.08,51.81,25.99,52.17,25.95L52.17,25.95L52.17,25.95z M54.22,42.66l3.99,8.22l2.01-3.45l-0.98-1.08 c-0.44-0.65-0.54-1.21-0.29-1.7c0.53-1.05,1.64-0.86,2.67-0.86c1.08,0,2.41-0.2,2.75,1.15c0.11,0.45-0.03,0.93-0.35,1.41 l-0.98,1.08l2.01,3.45l3.62-8.22c2.61,2.35,10.33,2.82,13.2,4.42c0.91,0.51,1.73,1.15,2.39,2.02l2.38,5.31H36.25 c0.48-2.88,0.63-2.99,2.38-5.31c0.66-0.87,1.48-1.52,2.39-2.02C43.9,45.47,51.62,45,54.22,42.66L54.22,42.66L54.22,42.66z M72.15,24.97l0.14-5.71c-0.17-2.35-0.95-4.13-2.18-5.47c-3.04-3.29-8.72-4.14-13.01-2.59c-0.72,0.26-1.41,0.59-2.03,0.99 c-1.77,1.13-3.2,2.77-3.77,4.8c-0.13,0.48-0.23,0.96-0.28,1.45c-0.09,2-0.04,4.38,0.1,6.29c-0.21,0.08-0.41,0.18-0.58,0.29 c-0.36,0.24-0.62,0.55-0.8,0.92c-0.16,0.35-0.24,0.76-0.23,1.2c0.03,0.93,0.45,2.05,1.28,3.28l2.23,3.55 c0.94,1.5,1.93,3.02,3.23,4.21c1.35,1.23,3,2.07,5.18,2.08c2.34,0.01,4.05-0.86,5.44-2.16c1.34-1.25,2.34-2.87,3.32-4.49l2.54-4.19 c0.02-0.03,0.03-0.05,0.04-0.08l0,0c0.7-1.6,0.85-2.72,0.48-3.47C73.04,25.42,72.67,25.13,72.15,24.97L72.15,24.97L72.15,24.97z M17.21,3.4h88.19v59.32H17.21V3.4L17.21,3.4z M57.87,66.39h7.14c0.67,0,1.22,0.55,1.22,1.22s-0.55,1.22-1.22,1.22h-7.14 c-0.67,0-1.22-0.55-1.22-1.22C56.65,66.94,57.2,66.39,57.87,66.39L57.87,66.39L57.87,66.39z"/></g></svg>