<svg id="Capa_1" enable-background="new 0 0 507.16 507.16" height="512" viewBox="0 0 507.16 507.16" width="512" xmlns="http://www.w3.org/2000/svg"><path d="m477.16 333.918h-12.21v-247.006c0-19.299-15.701-35-35-35h-352.74c-19.299 0-35 15.701-35 35v247.006h-12.21c-16.542 0-30 13.458-30 30v27.33c0 35.29 28.71 64 64 64h379.16c35.29 0 64-28.71 64-64v-27.33c0-16.542-13.458-30-30-30zm-404.95-247.006c0-2.757 2.243-5 5-5h352.74c2.757 0 5 2.243 5 5v247.006h-362.74zm404.95 304.336c0 18.748-15.252 34-34 34h-379.16c-18.748 0-34-15.252-34-34v-27.33c21.667-.001 428.853-.021 447.159-.022 0 0 .001.007.001.022z"/><path d="m382.321 157.83h-72.533c-8.284 0-15 6.716-15 15s6.716 15 15 15h72.533c8.284 0 15-6.716 15-15s-6.716-15-15-15z"/><path d="m382.321 228.004h-72.533c-8.284 0-15 6.716-15 15s6.716 15 15 15h72.533c8.284 0 15-6.716 15-15s-6.716-15-15-15z"/><path d="m205.763 125.673c-32.137 0-58.282 26.146-58.282 58.283 0 10.636 2.877 20.606 7.874 29.198l-41.122 41.121c-5.858 5.857-5.858 15.355 0 21.213 5.857 5.857 15.354 5.859 21.213 0l41.122-41.122c8.592 4.995 18.561 7.872 29.194 7.872 32.137 0 58.283-26.146 58.283-58.282.001-32.138-26.145-58.283-58.282-58.283zm0 86.565c-15.595 0-28.282-12.688-28.282-28.282 0-15.596 12.688-28.283 28.282-28.283 15.595 0 28.283 12.688 28.283 28.283s-12.688 28.282-28.283 28.282z"/></svg>