<?xml version="1.0" encoding="utf-8"?><svg version="1.1" id="Layer_1" xmlns="http://www.w3.org/2000/svg" xmlns:xlink="http://www.w3.org/1999/xlink" x="0px" y="0px" width="122.88px" height="86.411px" viewBox="0 0 122.88 86.411" enable-background="new 0 0 122.88 86.411" xml:space="preserve"><g><path fill-rule="evenodd" clip-rule="evenodd" fill="#ddd" d="M83.298,8.182h25.469c7.763,0,14.113,6.351,14.113,14.113v24.907 c0,7.761-6.352,14.113-14.113,14.113H97.802c1.569,6.206,3.469,11.781,9.272,16.929c-11.098-2.838-19.664-8.576-25.952-16.929 h-1.895c-0.737,0-1.509-0.058-2.303-0.168c4.193-3.396,7.106-7.659,7.106-12.275V38.493c0.926,0.644,2.051,1.021,3.264,1.021 c3.164,0,5.73-2.566,5.73-5.729s-2.566-5.729-5.73-5.729c-1.213,0-2.338,0.377-3.264,1.02V13.535 C84.031,11.683,83.774,9.888,83.298,8.182L83.298,8.182z M57.055,28.881c-3.201,0-5.796,2.596-5.796,5.796s2.596,5.796,5.796,5.796 c3.2,0,5.796-2.596,5.796-5.796S60.255,28.881,57.055,28.881L57.055,28.881z M21.488,28.881c-3.201,0-5.796,2.596-5.796,5.796 s2.596,5.796,5.796,5.796s5.796-2.596,5.796-5.796S24.689,28.881,21.488,28.881L21.488,28.881z M39.271,28.881 c-3.201,0-5.796,2.596-5.796,5.796s2.595,5.796,5.796,5.796s5.796-2.596,5.796-5.796S42.472,28.881,39.271,28.881L39.271,28.881z M59,3.572H19.542c-8.785,0-15.971,7.187-15.971,15.971v28.184c0,8.783,7.188,15.971,15.971,15.971h12.407 c-1.775,7.022-3.924,13.332-10.493,19.156c12.558-3.211,22.252-9.704,29.367-19.156h2.145c8.783,0,22.002-7.187,22.002-15.971 V19.542C74.971,10.759,67.784,3.572,59,3.572L59,3.572z M19.542,0H59h0.005v0.014c5.386,0.002,10.27,2.193,13.8,5.724l-0.008,0.007 c3.536,3.539,5.731,8.422,5.732,13.796h0.014v0.002h-0.014v28.184h0.014v0.003h-0.014c-0.002,5.746-3.994,10.752-9.312,14.248 c-4.952,3.256-11.205,5.277-16.247,5.277v0.015h-0.002v-0.015h-0.404c-3.562,4.436-7.696,8.225-12.43,11.333 c-5.235,3.438-11.157,6.028-17.799,7.727l-0.003-0.012c-1.25,0.315-2.628-0.06-3.541-1.091c-1.302-1.472-1.165-3.721,0.307-5.023 c2.896-2.567,4.816-5.239,6.207-8.041c0.774-1.559,1.398-3.188,1.939-4.878h-7.702h-0.005v-0.015 c-5.384-0.001-10.269-2.193-13.799-5.723c-3.531-3.531-5.724-8.417-5.725-13.804H0v-0.002h0.014V19.542H0v-0.005h0.014 C0.015,14.263,2.126,9.466,5.541,5.952c0.062-0.073,0.127-0.145,0.196-0.214c3.531-3.531,8.417-5.724,13.804-5.725V0H19.542 L19.542,0z M105.57,28.056c-3.163,0-5.729,2.566-5.729,5.729s2.566,5.729,5.729,5.729c3.164,0,5.73-2.566,5.73-5.729 S108.734,28.056,105.57,28.056L105.57,28.056z"/></g></svg>