<svg height="512" viewBox="0 0 60 60" width="512"
    xmlns="http://www.w3.org/2000/svg">
    <g id="Page-1" fill="none" fill-rule="evenodd">
        <g id="028---Video-Chat" fill="rgb(0,0,0)" fill-rule="nonzero">
            <path id="Shape" d="m10 15c.2651948-.0000566.5195073-.1054506.707-.293l4-4c.3789722-.3923789.3735524-1.01608478-.0121814-1.40181858-.3857338-.38573379-1.0094397-.39115363-1.4018186-.01218142l-4 4c-.28590792.2859943-.37142191.7160366-.21667798 1.0896546.15474393.3736179.51928208.6172591.92367798.6173454z" />
            <path id="Shape" d="m9.293 20.707c.39049985.3903819 1.0235001.3903819 1.414 0l10-10c.3789722-.3923789.3735524-1.01608478-.0121814-1.40181858-.3857338-.38573379-1.0094397-.39115363-1.4018186-.01218142l-10 10c-.39038194.3904999-.39038194 1.0235001 0 1.414z" />
            <path id="Shape" d="m51.663 40.946c3.9563839-3.4115899 5.3738874-8.9237735 3.5541196-13.8207485s-6.4929528-8.1457942-11.7171196-8.1457942-9.8973518 3.2488192-11.7171196 8.1457942-.4022643 10.4091586 3.5541196 13.8207485c-4.9768161 1.8290813-8.2983752 6.5518547-8.337 11.854v6.2c0 .5522847.4477153 1 1 1h31c.5522847 0 1-.4477153 1-1v-6.2c-.0386248-5.3021453-3.3601839-10.0249187-8.337-11.854zm-18.663-9.446c0-5.7989899 4.7010101-10.5 10.5-10.5s10.5 4.7010101 10.5 10.5-4.7010101 10.5-10.5 10.5c-5.7962485-.006613-10.493387-4.7037515-10.5-10.5zm25 26.5h-6v-2c0-.5522847-.4477153-1-1-1s-1 .4477153-1 1v2h-13v-2c0-.5522847-.4477153-1-1-1s-1 .4477153-1 1v2h-6v-5.2c.0657741-4.9862587 3.5278441-9.2830897 8.386-10.408 3.7940377 2.144088 8.4339623 2.144088 12.228 0 4.8581559 1.1249103 8.3202259 5.4217413 8.386 10.408z" />
            <path id="Shape" d="m57 0h-16c-1.6568542 0-3 1.34314575-3 3v2h-30c-1.65685425 0-3 1.34314575-3 3v25.68l-4.813 6.739c-.11027548.1748244-.17459883.3746739-.187.581v3c0 2.209139 1.790861 4 4 4h21.13c.5522847 0 1-.4477153 1-1s-.4477153-1-1-1h-21.13c-1.1045695 0-2-.8954305-2-2v-2h14.586l1.707 1.707c.1874927.1875494.4418052.2929434.707.293h8.5c.5522847 0 1-.4477153 1-1s-.4477153-1-1-1h-8.086l-1.269-1.27.576-1.73h10.709c.5522847 0 1-.4477153 1-1s-.4477153-1-1-1h-11.43c-.4302393.0003267-.8120445.2758064-.948.684l-.772 2.316h-13.337l3.571-5h21.486c.5522847 0 1-.4477153 1-1s-.4477153-1-1-1h-5v-2.5c0-.5522847-.4477153-1-1-1s-1 .4477153-1 1v2.5h-2v-2.57c-.0176625-2.2213714 1.4222677-4.1919306 3.544-4.85 3.1850563 1.8231158 7.2362424.8949005 9.3098064-2.1330801 2.073564-3.0279807 1.4744381-7.1407341-1.3768182-9.4512908-2.8512562-2.3105568-6.9988889-2.0444079-9.531445.6116219s-2.6011114 6.8116275-.1575432 9.549749c-2.3376781 1.2167312-3.7995722 3.6376557-3.788 6.273v2.57h-10v-25c0-.55228475.44771525-1 1-1h30v2.7l-2.8 4.194c-.4076453.6141811-.4443958 1.4028076-.0956356 2.0522376.3487603.6494301 1.0264839 1.0543661 1.7636356 1.0537624h20.132c1.6568542 0 3-1.3431458 3-3v-11c0-1.65685425-1.3431458-3-3-3zm-31 14.5c2.7614237 0 5 2.2385763 5 5s-2.2385763 5-5 5-5-2.2385763-5-5c.0033061-2.7600532 2.2399468-4.9966939 5-5zm32-.5c0 .5522847-.4477153 1-1 1h-20.132l2.964-4.445c.1092599-.1645007.1676876-.3575206.168-.555v-7c0-.55228475.4477153-1 1-1h16c.5522847 0 1 .44771525 1 1z" />
            <path id="Shape" d="m54 5h-10c-.5522847 0-1 .44771525-1 1s.4477153 1 1 1h10c.5522847 0 1-.44771525 1-1s-.4477153-1-1-1z" />
            <path id="Shape" d="m54 10h-10c-.5522847 0-1 .4477153-1 1s.4477153 1 1 1h10c.5522847 0 1-.4477153 1-1s-.4477153-1-1-1z" />
        </g>
    </g>
</svg>